<?xml version="1.0" encoding="UTF-8"?>
<svg version="1.1" xmlns="http://www.w3.org/2000/svg" width="512" height="512"><g transform="translate(512, 0) scale(-1, 1)">
<path d="M0 0 C1.51311264 0.00493217 1.51311264 0.00493217 3.05679321 0.00996399 C5.17643747 0.02034383 7.29605426 0.04022361 9.41552734 0.0690918 C12.67431092 0.11342066 15.93235757 0.1305693 19.19140625 0.14257812 C21.25261491 0.15599222 23.31381444 0.17091242 25.375 0.1875 C26.84360977 0.1985804 26.84360977 0.1985804 28.34188843 0.20988464 C29.68931625 0.2291375 29.68931625 0.2291375 31.06396484 0.2487793 C31.85781586 0.2586235 32.65166687 0.26846771 33.46957397 0.27861023 C35.2890625 0.42578125 35.2890625 0.42578125 36.2890625 1.42578125 C36.59629957 4.45746954 36.56757444 7.50545092 36.6015625 10.55078125 C36.63056641 11.39382812 36.65957031 12.236875 36.68945312 13.10546875 C36.74990648 19.09500148 35.79475377 22.53543633 32.2890625 27.42578125 C27.16085737 31.42578125 27.16085737 31.42578125 24.2890625 31.42578125 C24.31000977 32.21227051 24.33095703 32.99875977 24.35253906 33.80908203 C24.43594003 37.38951723 24.48780026 40.96974767 24.5390625 44.55078125 C24.57257813 45.78828125 24.60609375 47.02578125 24.640625 48.30078125 C24.76365632 59.74269381 24.76365632 59.74269381 20.2890625 64.42578125 C15.02590461 68.42578125 15.02590461 68.42578125 12.2890625 68.42578125 C12.2890625 71.06578125 12.2890625 73.70578125 12.2890625 76.42578125 C14.07352783 76.39436035 14.07352783 76.39436035 15.89404297 76.36230469 C20.3481827 76.28938019 24.80227069 76.24379245 29.25683594 76.20605469 C31.17717389 76.18605789 33.09745189 76.15885119 35.01757812 76.12402344 C58.88771613 75.70220187 58.88771613 75.70220187 68.6015625 84.55078125 C69.38144531 85.23398438 70.16132813 85.9171875 70.96484375 86.62109375 C77.29759547 94.26296893 80.00109989 103.98784627 82.93359375 113.30859375 C83.35172077 114.61732347 83.7705726 115.92582182 84.19010925 117.23410034 C85.28063072 120.64133432 86.36142347 124.05157455 87.44006348 127.46258545 C88.54716213 130.95743378 89.66364931 134.4492796 90.77929688 137.94140625 C92.95830116 144.76666353 95.12701332 151.59513164 97.2890625 158.42578125 C99.83800609 155.9728413 101.44565426 153.62175725 103.15234375 150.5078125 C103.70269287 149.51217285 104.25304199 148.5165332 104.82006836 147.49072266 C105.70190796 145.88076416 105.70190796 145.88076416 106.6015625 144.23828125 C107.85766082 141.9704039 109.11552153 139.70350191 110.375 137.4375 C110.6968779 136.85798584 111.0187558 136.27847168 111.35038757 135.68139648 C114.73728186 129.59616944 118.21847951 123.56688819 121.7265625 117.55078125 C122.28061768 116.5966333 122.83467285 115.64248535 123.40551758 114.65942383 C138.5074301 88.81988182 138.5074301 88.81988182 153.2890625 84.42578125 C156.77098685 83.953291 160.16330131 83.95367336 163.671875 84.03515625 C164.61215546 84.04081604 165.55243591 84.04647583 166.52120972 84.05230713 C169.48604096 84.07446475 172.44960468 84.12461998 175.4140625 84.17578125 C177.44008655 84.19587298 179.46612979 84.21411903 181.4921875 84.23046875 C186.42495783 84.27426156 191.35679627 84.34314243 196.2890625 84.42578125 C196.6190625 83.10578125 196.9490625 81.78578125 197.2890625 80.42578125 C204.39151249 80.40051338 211.49395098 80.38294924 218.59643555 80.37084961 C221.01473422 80.36580776 223.43302983 80.35897447 225.85131836 80.3503418 C229.31885533 80.33826968 232.78635216 80.33255162 236.25390625 80.328125 C237.34243393 80.32296371 238.43096161 80.31780243 239.55247498 80.31248474 C241.05391808 80.31237144 241.05391808 80.31237144 242.58569336 80.31225586 C243.47171738 80.31003525 244.35774139 80.30781464 245.27061462 80.30552673 C247.2890625 80.42578125 247.2890625 80.42578125 248.2890625 81.42578125 C248.5834371 86.96114168 248.60336817 92.49931036 248.63916016 98.04174805 C248.65562063 99.90678471 248.68277755 101.77176093 248.72119141 103.63647461 C249.16080004 125.09128723 249.16080004 125.09128723 241.5480957 133.30395508 C235.78515706 138.80341557 230.32243736 140.6031154 222.4765625 140.92578125 C214.82779878 140.73882953 209.18390473 138.90715828 203.44921875 133.78125 C200.76694739 130.87600254 199.15072179 128.29916469 197.9140625 124.55078125 C196.68649835 121.30801143 196.68649835 121.30801143 194.33203125 120.765625 C191.8454743 120.41600502 191.8454743 120.41600502 188.2890625 120.42578125 C188.2065625 121.00328125 188.1240625 121.58078125 188.0390625 122.17578125 C187.01159385 125.2581872 185.90646534 126.47950734 183.2890625 128.42578125 C182.05542969 128.41933594 180.82179688 128.41289062 179.55078125 128.40625 C176.63631589 128.72883215 175.57763594 129.11669099 173.55151367 131.28686523 C171.78415364 133.97974341 170.20933044 136.72447161 168.6640625 139.55078125 C167.44343381 141.66838709 166.22205899 143.785563 165 145.90234375 C164.38479492 146.9893457 163.76958984 148.07634766 163.13574219 149.19628906 C160.29140704 154.17049125 157.28902814 159.04445261 154.2890625 163.92578125 C150.68607029 169.82740026 147.09816535 175.73741782 143.54296875 181.66796875 C142.92486328 182.69470703 142.30675781 183.72144531 141.66992188 184.77929688 C140.49855888 186.72569704 139.33154509 188.67472456 138.16992188 190.62695312 C133.5670639 198.25786173 128.59984453 205.11499922 122.2890625 211.42578125 C126.5790625 211.75578125 130.8690625 212.08578125 135.2890625 212.42578125 C135.9490625 210.77578125 136.6090625 209.12578125 137.2890625 207.42578125 C138.04812037 205.97420897 138.83699826 204.53790656 139.65234375 203.1171875 C140.12051514 202.29879395 140.58868652 201.48040039 141.07104492 200.63720703 C141.82865112 199.32598877 141.82865112 199.32598877 142.6015625 197.98828125 C143.12919189 197.07030762 143.65682129 196.15233398 144.20043945 195.20654297 C150.14325529 184.89516715 156.20087093 174.65180896 162.2890625 164.42578125 C162.76102051 163.63187988 163.23297852 162.83797852 163.71923828 162.02001953 C164.99036645 159.88315002 166.26395326 157.74777704 167.5390625 155.61328125 C167.90990967 154.9908252 168.28075684 154.36836914 168.6628418 153.72705078 C171.17149997 149.54334378 171.17149997 149.54334378 172.2890625 148.42578125 C174.07102122 148.32723215 175.85691998 148.29946025 177.64160156 148.29879761 C178.80268433 148.29597778 179.96376709 148.29315796 181.16003418 148.29025269 C183.08788757 148.29328903 183.08788757 148.29328903 185.0546875 148.29638672 C186.41280159 148.29503269 187.7709153 148.29325275 189.12902832 148.29107666 C192.82727451 148.28650248 196.52549292 148.28829182 200.22373962 148.29145575 C204.08568397 148.29397943 207.94762587 148.29164179 211.80957031 148.29006958 C218.29622832 148.28824791 224.78287496 148.29065413 231.26953125 148.29541016 C238.77956173 148.30085277 246.28956506 148.29909012 253.79959488 148.29358375 C260.2360978 148.28905255 266.67259253 148.2884021 273.10909653 148.29102242 C276.95835566 148.29258516 280.80760202 148.29277905 284.65686035 148.28948593 C288.27486956 148.28660712 291.89284361 148.28858309 295.510849 148.29438019 C297.47992911 148.29634334 299.44901217 148.29335396 301.41809082 148.29025269 C302.57917358 148.29307251 303.74025635 148.29589233 304.93652344 148.29879761 C306.4596817 148.29936315 306.4596817 148.29936315 308.01361084 148.29994011 C310.2890625 148.42578125 310.2890625 148.42578125 311.2890625 149.42578125 C311.70641999 154.17316941 310.88020624 156.86320787 308.46484375 160.92578125 C307.55013306 162.48643311 307.55013306 162.48643311 306.61694336 164.07861328 C305.95186768 165.18317871 305.28679199 166.28774414 304.6015625 167.42578125 C303.91230356 168.59158284 303.22424934 169.75809746 302.53735352 170.92529297 C301.13730404 173.29931919 299.72995238 175.66874878 298.31542969 178.03417969 C296.49682469 181.07804241 294.69022013 184.12846714 292.890625 187.18359375 C290.79434485 190.74144166 288.69249949 194.29588718 286.5859375 197.84765625 C280.76616503 207.67518413 275.03347122 217.55408182 269.2890625 227.42578125 C270.4349585 227.4508374 271.58085449 227.47589355 272.76147461 227.50170898 C276.99759848 227.59561231 281.23355178 227.695874 285.46948242 227.7980957 C287.30570497 227.84150945 289.14196958 227.88317964 290.97827148 227.9230957 C293.61194561 227.98064294 296.24540671 228.04438123 298.87890625 228.109375 C299.70494858 228.12608749 300.53099091 228.14279999 301.38206482 228.16001892 C307.17519079 228.31190954 307.17519079 228.31190954 308.2890625 229.42578125 C308.3882282 231.04835669 308.41986027 232.67517956 308.421875 234.30078125 C308.42316406 235.285625 308.42445313 236.27046875 308.42578125 237.28515625 C308.42191406 238.3215625 308.41804688 239.35796875 308.4140625 240.42578125 C308.41792969 241.4621875 308.42179687 242.49859375 308.42578125 243.56640625 C308.42384766 245.04367187 308.42384766 245.04367187 308.421875 246.55078125 C308.42074707 247.46085938 308.41961914 248.3709375 308.41845703 249.30859375 C308.2890625 251.42578125 308.2890625 251.42578125 307.2890625 252.42578125 C304.99754833 252.513691 302.70333726 252.53272163 300.41015625 252.5234375 C299.38016258 252.52131508 299.38016258 252.52131508 298.32936096 252.51914978 C296.12838449 252.51353604 293.92750841 252.50098132 291.7265625 252.48828125 C290.23763167 252.48326801 288.74869926 252.4787048 287.25976562 252.47460938 C283.60283175 252.46356218 279.94595692 252.44628838 276.2890625 252.42578125 C276.29044519 254.2101668 276.29044519 254.2101668 276.29185581 256.03060055 C276.31349223 284.24000512 276.32999226 312.44940928 276.34012783 340.65882036 C276.3413786 344.12744601 276.34267292 347.59607164 276.34399414 351.06469727 C276.34438761 352.10055182 276.34438761 352.10055182 276.34478902 353.15733273 C276.34914577 364.35345043 276.35703334 375.54956303 276.3662153 386.7456777 C276.3755517 398.22547859 276.38104318 409.70527532 276.38315099 421.18508011 C276.38445854 427.63665618 276.38754713 434.08822065 276.39479256 440.53979301 C276.40154875 446.60451307 276.40368028 452.66921666 276.40217018 458.73394012 C276.40244669 460.96691286 276.40445418 463.19988611 276.40826797 465.43285561 C276.41319896 468.46721552 276.412063 471.50151222 276.40931702 474.53587341 C276.41368628 475.87971774 276.41368628 475.87971774 276.41814381 477.25071043 C276.40318371 483.31166004 276.40318371 483.31166004 275.2890625 484.42578125 C272.2890625 484.55078125 272.2890625 484.55078125 269.2890625 484.42578125 C267.39742785 482.5341466 268.16619408 479.7678055 268.15998119 477.25071043 C268.16289403 476.35481421 268.16580687 475.458918 268.16880798 474.53587341 C268.16752635 473.11964088 268.16752635 473.11964088 268.16621882 471.67479759 C268.16456113 468.48557216 268.17009009 465.29639839 268.17553711 462.10717773 C268.17581894 459.83119712 268.17566132 457.55521641 268.1750946 455.27923584 C268.17480649 449.07907167 268.18070548 442.87892666 268.18766856 436.67876697 C268.19389977 430.20715604 268.19450571 423.73554473 268.19569397 417.26393127 C268.19845369 406.39478177 268.20470924 395.52564016 268.21362305 384.65649414 C268.22279642 373.45922887 268.22986616 362.26196553 268.23413086 351.06469727 C268.23439886 350.36792206 268.23466685 349.67114686 268.23494297 348.95325726 C268.23725569 342.89269845 268.23940855 336.83213958 268.24154568 330.7715807 C268.25096214 304.65630757 268.2708806 278.54105315 268.2890625 252.42578125 C203.4440625 252.92078125 203.4440625 252.92078125 137.2890625 253.42578125 C140.9190625 256.06578125 144.5490625 258.70578125 148.2890625 261.42578125 C159.74653901 272.46720414 165.17572708 288.14151071 170.93829346 302.62832642 C172.38969483 306.27679504 173.85444315 309.91986526 175.31817627 313.56340027 C176.09873501 315.50667101 176.87863288 317.45020732 177.65789795 319.39399719 C181.77348841 329.6544177 185.95397229 339.88808778 190.13894653 350.12036133 C192.25066273 355.28394031 194.35983495 360.4485577 196.46875 365.61328125 C196.87700516 366.61307007 197.28526031 367.61285889 197.70588684 368.64294434 C203.41691844 382.63315942 209.09808098 396.63545316 214.76025391 410.64550781 C216.16598697 414.12321276 217.5770661 417.59873464 218.98828125 421.07421875 C219.7346682 422.92045441 220.48079127 424.76679679 221.2265625 426.61328125 C221.71334473 427.80787964 221.71334473 427.80787964 222.20996094 429.02661133 C224.2890625 434.19650954 224.2890625 434.19650954 224.2890625 436.42578125 C225.35253906 436.55533203 225.35253906 436.55533203 226.4375 436.6875 C235.00506209 437.81808628 243.48531793 439.32644699 251.9765625 440.92578125 C253.13526855 441.13936279 254.29397461 441.35294434 255.48779297 441.57299805 C256.5810791 441.782229 257.67436523 441.99145996 258.80078125 442.20703125 C259.78522217 442.39330078 260.76966309 442.57957031 261.78393555 442.77148438 C264.2890625 443.42578125 264.2890625 443.42578125 267.2890625 445.42578125 C267.4765625 448.55078125 267.4765625 448.55078125 267.2890625 451.42578125 C261.04741422 454.71309553 254.71559253 457.23650074 248.08203125 459.62109375 C246.47539612 460.20546959 246.47539612 460.20546959 244.83630371 460.801651 C241.38473231 462.0560372 237.93078786 463.30372386 234.4765625 464.55078125 C229.76765312 466.25622526 225.05957265 467.96395042 220.3515625 469.671875 C219.20636642 470.08675674 218.06117035 470.50163849 216.88127136 470.92909241 C210.60366257 473.20714799 204.34056298 475.51669782 198.1015625 477.8984375 C197.46229324 478.14128479 196.82302399 478.38413208 196.16438293 478.63433838 C193.39281267 479.68778339 190.62593514 480.75093434 187.8659668 481.83447266 C182.7529396 483.78106787 178.76897369 484.88684964 173.2890625 484.42578125 C169.82515927 477.76442888 166.94100303 470.93573549 164.1015625 463.98828125 C163.58044624 462.72030763 163.05894901 461.45249054 162.53710938 460.18481445 C161.69277187 458.13354773 160.84868531 456.08218081 160.00564575 454.03038025 C156.45271062 445.38337098 152.8704853 436.74852057 149.2890625 428.11328125 C148.93558746 427.26065704 148.58211243 426.40803284 148.21792603 425.52957153 C141.84097639 410.14771878 135.43860474 394.7765155 129.03063965 379.40756226 C120.42164575 358.75875424 111.84915429 338.09490237 103.2890625 317.42578125 C105.44672684 333.6332536 107.8109363 349.80381605 110.265625 365.96875 C110.64015199 368.44117752 111.01461154 370.91361526 111.38900757 373.38606262 C112.16608673 378.51495269 112.94443515 383.64364817 113.72363281 388.7722168 C114.52282479 394.03331066 115.32007173 399.29469259 116.11523438 404.55639648 C117.08238172 410.9557688 118.05210528 417.35474507 119.02390671 423.75341225 C119.39235431 426.18184041 119.75995607 428.61039707 120.12669754 431.03908348 C120.63613649 434.41080403 121.14892535 437.78199834 121.66259766 441.15307617 C121.88857887 442.65597702 121.88857887 442.65597702 122.11912537 444.1892395 C122.32924507 445.5613131 122.32924507 445.5613131 122.54360962 446.96110535 C122.66415522 447.75569247 122.78470081 448.5502796 122.90889931 449.36894512 C123.68347773 453.55972667 124.73188977 455.02853089 128.12109375 457.46484375 C128.91475342 458.04105469 129.70841309 458.61726563 130.52612305 459.2109375 C131.37601807 459.81808594 132.22591309 460.42523438 133.1015625 461.05078125 C134.38703979 461.98857422 134.38703979 461.98857422 135.69848633 462.9453125 C139.50746403 465.72250568 143.33239493 468.46881061 147.21875 471.13671875 C148.29382813 471.89210938 149.36890625 472.6475 150.4765625 473.42578125 C151.41886719 474.06515625 152.36117188 474.70453125 153.33203125 475.36328125 C155.2890625 477.42578125 155.2890625 477.42578125 155.65234375 480.61328125 C155.2890625 483.42578125 155.2890625 483.42578125 154.2890625 484.42578125 C151.13366265 484.5318143 148.00002877 484.57255518 144.84399414 484.57104492 C143.35629768 484.57608284 143.35629768 484.57608284 141.83854675 484.58122253 C138.54209154 484.59076411 135.24568694 484.59267723 131.94921875 484.59375 C129.6685738 484.5969603 127.38792905 484.60032419 125.10728455 484.60383606 C120.31964643 484.60983533 115.53202638 484.61167514 110.74438477 484.61108398 C104.59586187 484.6109823 98.44745431 484.6246371 92.29895878 484.64185619 C87.58678144 484.65294979 82.87463222 484.65500401 78.16244316 484.65447426 C75.89493856 484.65565827 73.62743331 484.66010343 71.35994148 484.66780663 C68.19438621 484.6775536 65.02908435 484.67474951 61.86352539 484.66870117 C60.91851166 484.67432068 59.97349792 484.67994019 58.99984741 484.68572998 C58.14029953 484.68153549 57.28075165 484.677341 56.39515686 484.67301941 C55.27159585 484.67383656 55.27159585 484.67383656 54.12533665 484.67467022 C52.2890625 484.42578125 52.2890625 484.42578125 50.2890625 482.42578125 C49.82546616 480.58747387 49.82546616 480.58747387 49.51947021 478.3120575 C49.39917953 477.44878342 49.27888885 476.58550934 49.154953 475.69607544 C49.03130875 474.74538177 48.90766449 473.79468811 48.78027344 472.81518555 C48.57483665 471.31383308 48.57483665 471.31383308 48.36524963 469.78215027 C47.90989624 466.4391406 47.4666791 463.09463539 47.0234375 459.75 C46.70509274 457.39433629 46.38600832 455.03877243 46.06622314 452.68330383 C45.21930899 446.42973597 44.38265528 440.17483551 43.54803467 433.9196167 C42.7217811 427.74050035 41.88586714 421.56269334 41.05078125 415.38476562 C39.11754095 401.06679335 37.20105591 386.7466043 35.2890625 372.42578125 C34.98103846 370.11948648 34.67301438 367.81319172 34.36499023 365.50689697 C32.67002268 352.8135898 30.97795681 340.11989789 29.2890625 327.42578125 C29.28483056 328.2288417 29.28059862 329.03190214 29.27623844 329.85929775 C29.17307725 349.37076311 29.06446162 368.88219107 28.94972324 388.39359188 C28.89436986 397.82903219 28.84088445 407.26447627 28.79174805 416.69995117 C28.74893205 424.92084184 28.7026607 433.14170442 28.65218395 441.36255175 C28.62556211 445.71818799 28.60070861 450.07381858 28.57998848 454.42948723 C28.56045442 458.52437469 28.53632054 462.6192086 28.50857162 466.71404839 C28.49918401 468.22135957 28.49151493 469.72868253 28.48564339 471.23601151 C28.47741125 473.28508552 28.46254563 475.33412976 28.44728088 477.38316345 C28.44082833 478.5326393 28.43437578 479.68211515 28.4277277 480.86642361 C28.2890625 483.42578125 28.2890625 483.42578125 27.2890625 484.42578125 C24.2890625 484.55078125 24.2890625 484.55078125 21.2890625 484.42578125 C20.2890625 483.42578125 20.2890625 483.42578125 20.16601467 480.56969357 C20.16693646 479.28010518 20.16785826 477.9905168 20.16880798 476.66184998 C20.16752635 475.58863584 20.16752635 475.58863584 20.16621882 474.49374062 C20.16456192 472.07840311 20.17008879 469.66313392 20.17553711 467.24780273 C20.17581896 465.52353924 20.17566129 463.79927563 20.1750946 462.07501221 C20.17480655 457.37892978 20.18070448 452.68287266 20.18766856 447.98679614 C20.19390086 443.08470966 20.1945058 438.18262267 20.19569397 433.28053284 C20.19880765 423.99095229 20.20702154 414.70138345 20.21704346 405.41180807 C20.22820345 394.83883165 20.23371476 384.26585468 20.23873889 373.69287384 C20.24920412 351.93716976 20.26680427 330.18147624 20.2890625 308.42578125 C17.3190625 308.42578125 14.3490625 308.42578125 11.2890625 308.42578125 C11.33546875 309.69035156 11.381875 310.95492188 11.4296875 312.2578125 C11.46720462 313.91794516 11.50360485 315.57810333 11.5390625 317.23828125 C11.57257813 318.07166016 11.60609375 318.90503906 11.640625 319.76367188 C11.65351563 320.56611328 11.66640625 321.36855469 11.6796875 322.1953125 C11.70063477 322.93370361 11.72158203 323.67209473 11.74316406 324.43286133 C11.2890625 326.42578125 11.2890625 326.42578125 9.62005615 328.03862 C6.71484177 329.76749679 4.89230989 329.73304009 1.5390625 329.61328125 C0.55421875 329.58621094 -0.430625 329.55914062 -1.4453125 329.53125 C-2.56679688 329.47904297 -2.56679688 329.47904297 -3.7109375 329.42578125 C-3.62847778 330.14654972 -3.54601807 330.86731819 -3.46105957 331.60992813 C-1.45047756 349.18825561 0.55261495 366.76742055 2.54748535 384.34753799 C3.51238741 392.84929936 4.47977585 401.35076373 5.453125 409.8515625 C6.30198124 417.26515235 7.14606321 424.67926794 7.98453522 432.09403968 C8.42821966 436.01616333 8.87420959 439.93799232 9.32592773 443.85919952 C9.75202281 447.55864719 10.17167527 451.2587719 10.5866394 454.9594841 C10.81115538 456.94724732 11.04227853 458.93426089 11.27368164 460.92123413 C12.10512301 468.40215402 12.79631676 475.89472239 12.2890625 483.42578125 C11.2890625 484.42578125 11.2890625 484.42578125 8.2265625 484.48828125 C7.2571875 484.46765625 6.2878125 484.44703125 5.2890625 484.42578125 C3.32089765 481.06291728 2.83490326 478.10358388 2.40316772 474.25018311 C2.25737778 472.98256134 2.11158783 471.71493958 1.96138 470.40890503 C1.80793331 469.00666832 1.65463316 467.60441558 1.50146484 466.20214844 C1.33434035 464.7236704 1.166543 463.24526829 0.99812317 461.76693726 C0.54306694 457.7556518 0.09743723 453.74336858 -0.34651995 449.73084164 C-0.81217313 445.53684462 -1.28647133 441.34382576 -1.75985718 437.1506958 C-2.65485353 429.21124738 -3.54206071 421.2709487 -4.4264797 413.33031583 C-5.62212223 402.59949083 -6.82977829 391.87001848 -8.03676605 381.14046478 C-9.93798593 364.23665992 -11.82313621 347.33110244 -13.7109375 330.42578125 C-71.6259375 329.93078125 -71.6259375 329.93078125 -130.7109375 329.42578125 C-131.3709375 337.01578125 -132.0309375 344.60578125 -132.7109375 352.42578125 C-133.18779146 357.23050312 -133.67409731 362.03094362 -134.19140625 366.83105469 C-134.32503571 368.08780502 -134.45866516 369.34455536 -134.59634399 370.63938904 C-134.95349542 373.9958146 -135.31361606 377.35191373 -135.67486954 380.70790005 C-135.90140915 382.81276695 -136.1274464 384.9176873 -136.35336304 387.02262115 C-137.06333608 393.63559437 -137.77532002 400.2483466 -138.49016666 406.86079478 C-139.31071728 414.45139794 -140.12411823 422.04272494 -140.93170834 429.6347177 C-141.56120622 435.54833754 -142.19701446 441.46125761 -142.83763981 447.37368226 C-143.21840195 450.88914666 -143.59646794 454.40485085 -143.96786499 457.92131805 C-144.37961284 461.81801893 -144.80441735 465.71323415 -145.23046875 469.60839844 C-145.35104645 470.76772385 -145.47162415 471.92704926 -145.59585571 473.12150574 C-145.71351288 474.17781693 -145.83117004 475.23412811 -145.95239258 476.32244873 C-146.05119217 477.24110088 -146.14999176 478.15975304 -146.25178528 479.10624313 C-146.7109375 481.42578125 -146.7109375 481.42578125 -148.7109375 484.42578125 C-151.7734375 484.67578125 -151.7734375 484.67578125 -154.7109375 484.42578125 C-156.48207 482.65464875 -155.85697812 480.14191927 -155.85850525 477.74429321 C-155.79956773 470.54420103 -155.15030546 463.48021248 -154.34985352 456.32958984 C-154.20310652 454.97301475 -154.05696593 453.61637394 -153.91137695 452.25967407 C-153.51891621 448.61914881 -153.11786265 444.97961948 -152.71493268 441.34024 C-152.29300151 437.51717995 -151.87856598 433.69330649 -151.46311951 429.86953735 C-150.76589148 423.46246533 -150.06331238 417.05599855 -149.35717773 410.64990234 C-148.54096968 403.2448585 -147.73202274 395.83905 -146.92717415 388.43276346 C-146.06819984 380.52898342 -145.20415865 372.62576345 -144.33852649 364.72271013 C-144.08986735 362.44943447 -143.84213796 360.17605906 -143.5946064 357.90266037 C-143.2062483 354.33831816 -142.81448708 350.77436586 -142.42006683 347.21068954 C-142.20694156 345.27813137 -141.99706603 343.34521569 -141.78727722 341.41229248 C-141.65969025 340.26580231 -141.53210327 339.11931213 -141.40065002 337.93807983 C-141.29095666 336.9400704 -141.18126329 335.94206097 -141.06824589 334.91380882 C-140.7109375 332.42578125 -140.7109375 332.42578125 -139.7109375 329.42578125 C-140.67515625 329.44898438 -141.639375 329.4721875 -142.6328125 329.49609375 C-143.89609375 329.51414062 -145.159375 329.5321875 -146.4609375 329.55078125 C-147.71390625 329.57398438 -148.966875 329.5971875 -150.2578125 329.62109375 C-153.54450128 329.43519506 -154.92908143 328.96592762 -157.7109375 327.42578125 C-157.73986135 323.30079587 -157.75771017 319.1758364 -157.7734375 315.05078125 C-157.78181641 313.87515625 -157.79019531 312.69953125 -157.79882812 311.48828125 C-157.80205078 310.36679687 -157.80527344 309.2453125 -157.80859375 308.08984375 C-157.81383057 307.0529541 -157.81906738 306.01606445 -157.82446289 304.94775391 C-157.7109375 302.42578125 -157.7109375 302.42578125 -156.7109375 300.42578125 C-154.0709375 300.42578125 -151.4309375 300.42578125 -148.7109375 300.42578125 C-148.99649506 299.37305023 -149.28205261 298.32031921 -149.57626343 297.23568726 C-151.0369661 291.37556629 -151.92526061 285.42885177 -152.86572266 279.46728516 C-153.07083969 278.18495499 -153.27595673 276.90262482 -153.48728943 275.58143616 C-154.04644173 272.08396712 -154.60098265 268.58578255 -155.15423632 265.08737612 C-155.50088148 262.89677331 -155.84852462 260.70633125 -156.19651413 258.51594162 C-157.41270258 250.86049365 -158.62508821 243.20445437 -159.83398438 235.54785156 C-160.95750003 228.43267373 -162.08943581 221.3188701 -163.22529185 214.20565283 C-164.20324046 208.0788666 -165.17519659 201.95114882 -166.14258611 195.82268655 C-166.71910545 192.1710777 -167.29798513 188.51988319 -167.88295364 184.86961746 C-168.53561159 180.79543707 -169.17579475 176.71938827 -169.81494141 172.64306641 C-170.00816483 171.4479393 -170.20138824 170.25281219 -170.40046692 169.02146912 C-171.40928436 162.51335885 -172.30628869 156.02192854 -171.7109375 149.42578125 C-169.02540849 146.74025224 -161.99498144 147.88576332 -158.36743164 147.80102539 C-156.98679762 147.75965627 -155.60659397 147.69856829 -154.2277832 147.61645508 C-148.10134278 147.25781614 -142.85966328 146.95247264 -137.66552734 150.51391602 C-135.12267274 153.03448134 -132.90358928 155.59816386 -130.7109375 158.42578125 C-129.21200892 160.19752159 -127.712144 161.9684706 -126.2109375 163.73828125 C-122.39643164 168.49791423 -118.67181767 173.32814283 -114.984375 178.18676758 C-113.31020606 180.38750058 -111.66900094 182.46771781 -109.7109375 184.42578125 C-109.44864349 183.29318375 -109.18634949 182.16058624 -108.91610718 180.9936676 C-106.43549716 170.29327593 -103.93542321 159.59759396 -101.41647911 148.9061594 C-100.12224263 143.4101124 -98.83479134 137.91266224 -97.56298828 132.41137695 C-96.33417141 127.09718395 -95.08734823 121.78750713 -93.82820511 116.48042107 C-93.35220274 114.46025472 -92.88258408 112.43857267 -92.41962814 110.41537666 C-91.76740243 107.57018539 -91.0921746 104.73135134 -90.41162109 101.89282227 C-90.2274765 101.0649118 -90.04333191 100.23700134 -89.85360718 99.38400269 C-88.10861873 92.28639849 -84.79196021 86.13826057 -79.26171875 81.26953125 C-78.52308594 80.82609375 -77.78445312 80.38265625 -77.0234375 79.92578125 C-75.90388672 79.2296875 -75.90388672 79.2296875 -74.76171875 78.51953125 C-71.31739437 76.68255825 -68.61790478 76.3025899 -64.78051758 76.31225586 C-63.77970657 76.31233139 -62.77889557 76.31240692 -61.74775696 76.31248474 C-60.66955185 76.31764603 -59.59134674 76.32280731 -58.48046875 76.328125 C-57.37491135 76.32953995 -56.26935394 76.3309549 -55.1302948 76.33241272 C-51.59464833 76.33801611 -48.05906488 76.35056921 -44.5234375 76.36328125 C-42.12825612 76.36829581 -39.73307375 76.37285879 -37.33789062 76.37695312 C-31.46221803 76.38798664 -25.58658227 76.40472809 -19.7109375 76.42578125 C-19.57816406 75.20761719 -19.44539062 73.98945312 -19.30859375 72.734375 C-19.13026783 71.11067055 -18.95187907 69.486973 -18.7734375 67.86328125 C-18.64291992 66.66348633 -18.64291992 66.66348633 -18.50976562 65.43945312 C-17.99332298 60.75321428 -17.40572219 56.08897579 -16.7109375 51.42578125 C-17.3090625 51.17828125 -17.9071875 50.93078125 -18.5234375 50.67578125 C-21.15811556 49.17025093 -22.16510489 48.04582276 -23.7109375 45.42578125 C-24.31157417 40.94809375 -24.26835342 36.4591293 -24.2668457 31.9465332 C-24.2733686 29.7613641 -24.32774375 27.58084166 -24.38476562 25.39648438 C-24.47564087 18.13799335 -24.13174075 12.27233113 -19.68725586 6.21166992 C-13.33897152 0.47507944 -8.29329451 -0.15016605 0 0 Z M4.2890625 30.42578125 C2.9896875 32.65328125 2.9896875 32.65328125 1.6640625 34.92578125 C-1.25291138 39.32889111 -1.25291138 39.32889111 -4.9609375 40.11328125 C-7.7109375 39.42578125 -7.7109375 39.42578125 -9.7109375 37.42578125 C-12.31374318 37.74619522 -12.31374318 37.74619522 -14.7109375 38.42578125 C-14.3809375 40.07578125 -14.0509375 41.72578125 -13.7109375 43.42578125 C-10.7409375 43.92078125 -10.7409375 43.92078125 -7.7109375 44.42578125 C-7.53198336 50.79356616 -8.22012598 56.76671538 -9.2109375 63.05078125 C-9.75096287 66.50499756 -10.24761029 69.96054859 -10.7109375 73.42578125 C-10.88496094 74.47765625 -11.05898437 75.52953125 -11.23828125 76.61328125 C-10.37319896 81.22705349 -7.11760715 83.68735605 -3.7734375 86.80078125 C-2.7844043 87.76177734 -2.7844043 87.76177734 -1.77539062 88.7421875 C0.88773825 91.83339312 0.88773825 91.83339312 4.2890625 93.42578125 C4.2890625 85.17578125 4.2890625 76.92578125 4.2890625 68.42578125 C2.3090625 67.43578125 0.3290625 66.44578125 -1.7109375 65.42578125 C-1.3809375 63.77578125 -1.0509375 62.12578125 -0.7109375 60.42578125 C2.07965342 59.49558428 4.39341297 59.45661364 7.2890625 59.61328125 C10.44478612 59.66029389 11.0717092 59.58740294 13.7265625 57.61328125 C16.03428368 54.3824716 16.41262866 51.83713926 16.38671875 47.9765625 C16.38188477 46.70522461 16.38188477 46.70522461 16.37695312 45.40820312 C16.36857422 44.52712891 16.36019531 43.64605469 16.3515625 42.73828125 C16.34705078 41.84560547 16.34253906 40.95292969 16.33789062 40.03320312 C16.32611254 37.83070052 16.30817731 35.6282324 16.2890625 33.42578125 C10.3490625 31.94078125 10.3490625 31.94078125 4.2890625 30.42578125 Z M-76.7109375 92.42578125 C-79.26443642 96.95828859 -80.66418901 101.48777842 -81.83984375 106.51977539 C-82.03053436 107.3093161 -82.22122498 108.09885681 -82.41769409 108.912323 C-83.0432915 111.51023441 -83.65842557 114.11050171 -84.2734375 116.7109375 C-84.70974106 118.53224967 -85.14668189 120.35340928 -85.58422852 122.17442322 C-86.73380289 126.96662381 -87.87444611 131.76090754 -89.01330566 136.55566406 C-90.1647288 141.3958722 -91.32504915 146.23394555 -92.484375 151.07226562 C-95.60016054 164.08351505 -95.60016054 164.08351505 -98.68310547 177.10256958 C-99.33151419 179.85178099 -100.00123233 182.59385971 -100.69580078 185.33175659 C-100.98052246 186.48096588 -101.26524414 187.63017517 -101.55859375 188.81420898 C-101.80746338 189.78937973 -102.05633301 190.76455048 -102.31274414 191.76927185 C-103.06610001 196.79521441 -101.42852236 200.32853499 -99.05078125 204.6796875 C-98.50357422 205.70126953 -97.95636719 206.72285156 -97.39257812 207.77539062 C-96.26060805 209.86059866 -95.12538075 211.94404301 -93.98632812 214.02539062 C-88.64994362 224.01178806 -85.01190381 233.67336548 -80.7109375 244.42578125 C-60.5809375 244.42578125 -40.4509375 244.42578125 -19.7109375 244.42578125 C-19.7109375 241.78578125 -19.7109375 239.14578125 -19.7109375 236.42578125 C-20.52175781 236.4 -21.33257812 236.37421875 -22.16796875 236.34765625 C-35.65097133 235.65702515 -47.08281754 231.7006681 -56.4609375 221.67578125 C-62.54975022 214.12403531 -65.47651678 205.87620605 -67.4609375 196.48828125 C-67.81393921 194.88496948 -67.81393921 194.88496948 -68.17407227 193.24926758 C-68.86717302 190.07497525 -69.54547574 186.89782588 -70.22027588 183.71960449 C-70.76400038 181.17771442 -71.31753074 178.6380784 -71.87255859 176.09863281 C-72.93223217 171.24925228 -73.97988024 166.3974084 -75.01940918 161.54367065 C-75.43778862 159.59460949 -75.85891917 157.64613679 -76.28283691 155.69827271 C-76.88203162 152.93626568 -77.46805107 150.17177121 -78.05078125 147.40625 C-78.23376266 146.57392853 -78.41674408 145.74160706 -78.60527039 144.88406372 C-79.46050553 140.75711378 -79.99811022 137.5589954 -78.7109375 133.42578125 C-76.7309375 133.42578125 -74.7509375 133.42578125 -72.7109375 133.42578125 C-72.52087883 134.31422981 -72.52087883 134.31422981 -72.32698059 135.22062683 C-70.98283457 141.50162793 -69.63526627 147.78188838 -68.28588867 154.06176758 C-67.78569823 156.39166521 -67.28632147 158.7217377 -66.7878418 161.05200195 C-64.27503466 172.79614892 -61.7403714 184.53549411 -59.0234375 196.234375 C-58.83098953 197.08331833 -58.63854156 197.93226166 -58.44026184 198.80693054 C-55.81576112 209.92221714 -50.35966151 217.41563144 -40.80859375 223.671875 C-31.25614849 229.00483524 -20.13910732 228.70846025 -9.51171875 228.62109375 C-8.19552048 228.61826385 -6.8793222 228.61543396 -5.52323914 228.61251831 C-2.06271443 228.60496541 1.39763624 228.5853912 4.85809326 228.56311035 C8.40472011 228.54246964 11.95137654 228.53336761 15.49804688 228.5234375 C22.42853796 228.50320249 29.35855424 228.46403613 36.2890625 228.42578125 C36.2890625 217.86578125 36.2890625 207.30578125 36.2890625 196.42578125 C18.1390625 196.09578125 -0.0109375 195.76578125 -18.7109375 195.42578125 C-21.17885803 185.55409915 -23.59290931 175.72915513 -25.7265625 165.7890625 C-26.11760162 163.97634102 -26.11760162 163.97634102 -26.51654053 162.1269989 C-27.05898271 159.6075106 -27.60001168 157.08771763 -28.13964844 154.56762695 C-28.96759465 150.70724158 -29.80395308 146.84873681 -30.640625 142.99023438 C-31.16978141 140.5274534 -31.69844537 138.06456655 -32.2265625 135.6015625 C-32.47649963 134.45263016 -32.72643677 133.30369781 -32.98394775 132.11994934 C-33.32495514 130.51623726 -33.32495514 130.51623726 -33.67285156 128.88012695 C-33.87396545 127.9446553 -34.07507935 127.00918365 -34.2822876 126.04536438 C-34.70628467 123.45421584 -34.7896757 121.0460487 -34.7109375 118.42578125 C-32.4009375 117.76578125 -30.0909375 117.10578125 -27.7109375 116.42578125 C-27.16259009 119.02730795 -26.61441961 121.62887168 -26.06640625 124.23046875 C-25.8893364 125.071008 -25.71226654 125.91154724 -25.52983093 126.77755737 C-24.23667617 132.91961943 -22.94928718 139.0628717 -21.66409302 145.206604 C-20.69990549 149.81190113 -19.73239906 154.41649788 -18.7644043 159.02099609 C-18.26372023 161.40613289 -17.76440642 163.79155767 -17.26635742 166.17724609 C-16.53914618 169.65927408 -15.80718383 173.14027306 -15.07421875 176.62109375 C-14.85131668 177.69376495 -14.62841461 178.76643616 -14.39875793 179.87161255 C-14.19151596 180.85128998 -13.98427399 181.83096741 -13.77075195 182.84033203 C-13.58962357 183.70457794 -13.40849518 184.56882385 -13.22187805 185.45925903 C-12.89111706 187.41445761 -12.89111706 187.41445761 -11.7109375 188.42578125 C-9.56534923 188.5135373 -7.41689329 188.53273344 -5.26953125 188.5234375 C-3.96435547 188.52021484 -2.65917969 188.51699219 -1.31445312 188.51367188 C0.0742194 188.50531526 1.46289127 188.4968503 2.8515625 188.48828125 C4.24413906 188.48326791 5.63671731 188.47870472 7.02929688 188.47460938 C10.4492612 188.46277559 13.86914094 188.44629005 17.2890625 188.42578125 C19.79991024 181.2959123 21.66330239 174.1250047 23.390625 166.76953125 C23.67255707 165.58605103 23.95448914 164.4025708 24.2449646 163.18322754 C25.13848991 159.43164208 26.02684767 155.67886372 26.9140625 151.92578125 C27.80859399 148.14417815 28.70433016 144.36288682 29.60458374 140.5826416 C30.1633414 138.23636182 30.71878694 135.8892904 31.2706604 133.54138184 C31.52117157 132.48938599 31.77168274 131.43739014 32.02978516 130.35351562 C32.35929672 128.95860901 32.35929672 128.95860901 32.69546509 127.53552246 C33.2890625 125.42578125 33.2890625 125.42578125 34.2890625 124.42578125 C36.28864614 124.38497342 38.28951504 124.38323769 40.2890625 124.42578125 C40.52487534 125.19808075 40.76068817 125.97038025 41.00364685 126.76608276 C43.22370794 134.0357778 45.44546084 141.30495255 47.66912746 148.57354546 C48.81233961 152.31062573 49.95489098 156.04790538 51.09594727 159.78564453 C52.19666191 163.39115101 53.29909259 166.99612861 54.40272713 170.60074234 C54.82397997 171.97769507 55.24460874 173.35483888 55.66460991 174.73217392 C56.25189807 176.65772519 56.84158951 178.58254298 57.43139648 180.50732422 C57.76670883 181.60430634 58.10202118 182.70128845 58.44749451 183.83151245 C59.20077304 186.37370357 59.20077304 186.37370357 60.2890625 188.42578125 C62.80913202 188.75125148 65.30496926 188.80530013 67.84375 188.88671875 C79.48327108 190.70786831 88.83235065 197.16991288 98.58789062 203.37695312 C100.18600586 204.36985352 100.18600586 204.36985352 101.81640625 205.3828125 C102.77281006 205.9910083 103.72921387 206.5992041 104.71459961 207.22583008 C107.15590688 208.63379138 107.15590688 208.63379138 109.51049805 208.18652344 C111.61596483 207.2859559 113.31879164 206.22314953 115.1640625 204.86328125 C115.80085937 204.40824219 116.43765625 203.95320313 117.09375 203.484375 C123.98434182 197.02291256 128.48180759 188.39100412 133.2890625 180.36328125 C134.03136476 179.13091078 134.77412813 177.89881794 135.51733398 176.66699219 C137.03128065 174.15708117 138.54335665 171.64605794 140.05419922 169.13427734 C143.46514713 163.46836838 146.90916478 157.8226237 150.3515625 152.17578125 C151.50918952 150.27478522 152.6667494 148.37374829 153.82421875 146.47265625 C154.64580839 145.12368273 155.46741231 143.77471789 156.2890625 142.42578125 C152.33840959 138.1736108 148.04420802 135.0154888 143.2265625 131.80078125 C141.8185315 130.85097 140.41096499 129.90046973 139.00390625 128.94921875 C138.35147949 128.51319336 137.69905273 128.07716797 137.02685547 127.62792969 C135.2890625 126.42578125 135.2890625 126.42578125 132.98046875 124.52734375 C132.42230469 124.16382813 131.86414063 123.8003125 131.2890625 123.42578125 C127.40016825 124.72207933 127.1223505 126.02613735 125.20703125 129.5859375 C124.61140381 130.6793042 124.01577637 131.7726709 123.40209961 132.89916992 C122.93149612 133.7773085 122.93149612 133.7773085 122.4513855 134.67318726 C121.47121837 136.49823187 120.47742726 138.31514679 119.47875977 140.13012695 C117.07406259 144.50078204 114.67640775 148.87528928 112.29272461 153.25744629 C110.13354205 157.22636547 107.93788047 161.17321829 105.7265625 165.11328125 C104.88871216 166.67091187 104.88871216 166.67091187 104.03393555 168.26000977 C103.49808838 169.20545654 102.96224121 170.15090332 102.41015625 171.125 C101.72070923 172.37543091 101.72070923 172.37543091 101.01733398 173.65112305 C99.2890625 175.42578125 99.2890625 175.42578125 96.09399414 175.69458008 C95.1683667 175.60587646 94.24273926 175.51717285 93.2890625 175.42578125 C91.80370169 171.02143968 90.32286138 166.6156064 88.8460083 162.20840454 C88.30811769 160.60354093 87.76966563 158.99886539 87.23065186 157.39437866 C84.05308655 147.92597285 80.95471036 138.4408185 78.03125 128.890625 C77.6366156 127.6090451 77.6366156 127.6090451 77.23400879 126.30157471 C75.96359171 122.17463871 74.70742816 118.04437503 73.47558594 113.90576172 C70.50156358 104.10649846 67.38627506 94.19474531 58.2890625 88.42578125 C51.33747503 85.01318376 45.14165457 84.27091948 37.484375 84.328125 C36.3984053 84.33024742 36.3984053 84.33024742 35.29049683 84.33241272 C32.99830843 84.3379705 30.70622093 84.35051492 28.4140625 84.36328125 C26.85156392 84.36830172 25.28906379 84.37286366 23.7265625 84.37695312 C19.9139932 84.38707141 16.1016396 84.40665461 12.2890625 84.42578125 C11.9590625 92.01578125 11.6290625 99.60578125 11.2890625 107.42578125 C9.3090625 107.42578125 7.3290625 107.42578125 5.2890625 107.42578125 C3.21069336 105.31445312 3.21069336 105.31445312 1.25390625 102.39453125 C-8.53273458 89.46723589 -8.53273458 89.46723589 -23.04541016 83.28808594 C-29.0642195 82.64177169 -35.04101374 82.62344593 -41.0859375 82.80078125 C-42.58243332 82.84271606 -42.58243332 82.84271606 -44.10916138 82.88549805 C-62.24213644 83.03794792 -62.24213644 83.03794792 -76.7109375 92.42578125 Z M143.2890625 100.42578125 C139.39506278 105.0614952 136.38752394 109.73864662 134.2890625 115.42578125 C143.18556365 121.59863588 152.08709853 127.71354514 161.2890625 133.42578125 C161.69898438 132.81089844 162.10890625 132.19601563 162.53125 131.5625 C169.2890625 121.42578125 169.2890625 121.42578125 171.3828125 120.984375 C172.176875 120.94441406 172.9709375 120.90445313 173.7890625 120.86328125 C177.48350834 120.76166379 177.48350834 120.76166379 180.2890625 118.42578125 C180.60014747 115.93617025 180.60014747 115.93617025 180.5546875 113.05078125 C180.55726563 111.9834375 180.55984375 110.91609375 180.5625 109.81640625 C180.55089844 108.13804688 180.55089844 108.13804688 180.5390625 106.42578125 C180.54679687 105.306875 180.55453125 104.18796875 180.5625 103.03515625 C180.55992187 101.9678125 180.55734375 100.90046875 180.5546875 99.80078125 C180.55243164 98.81851563 180.55017578 97.83625 180.54785156 96.82421875 C180.52279113 94.24139628 180.52279113 94.24139628 178.2890625 92.42578125 C175.55894191 92.22420883 172.95526382 92.14158555 170.2265625 92.17578125 C169.06737305 92.18810791 169.06737305 92.18810791 167.88476562 92.20068359 C158.18816608 92.39061278 150.75785676 93.77324865 143.2890625 100.42578125 Z M188.2890625 93.42578125 C188.2890625 99.36578125 188.2890625 105.30578125 188.2890625 111.42578125 C190.81081169 112.87299485 190.81081169 112.87299485 196.2890625 112.42578125 C196.2890625 105.82578125 196.2890625 99.22578125 196.2890625 92.42578125 C190.81081169 91.97856765 190.81081169 91.97856765 188.2890625 93.42578125 Z M37.2890625 145.42578125 C34.69768949 154.80045418 32.32650994 164.22258229 30.0390625 173.67578125 C29.76884277 174.78300537 29.49862305 175.89022949 29.22021484 177.03100586 C28.96965332 178.07393799 28.7190918 179.11687012 28.4609375 180.19140625 C28.2350293 181.12758789 28.00912109 182.06376953 27.77636719 183.02832031 C27.18946964 185.50801477 27.18946964 185.50801477 27.2890625 188.42578125 C34.8790625 188.42578125 42.4690625 188.42578125 50.2890625 188.42578125 C49.52008323 182.72722164 49.52008323 182.72722164 48.16577148 177.32641602 C47.94561874 176.60619766 47.725466 175.88597931 47.49864197 175.14393616 C47.26319168 174.3926091 47.02774139 173.64128204 46.78515625 172.8671875 C46.5424147 172.07803452 46.29967316 171.28888153 46.04957581 170.47581482 C45.28015501 167.97842038 44.50348617 165.48335052 43.7265625 162.98828125 C43.20068965 161.28595618 42.67529417 159.58348357 42.15039062 157.88085938 C40.8687955 153.72744001 39.58069923 149.5760883 38.2890625 145.42578125 C37.9590625 145.42578125 37.6290625 145.42578125 37.2890625 145.42578125 Z M210.2890625 186.42578125 C208.67476327 189.65437972 208.69335593 192.93571778 209.2890625 196.42578125 C211.02508355 199.4508627 213.12486387 201.84368194 216.2890625 203.42578125 C221.41276648 204.0330697 221.41276648 204.0330697 226.11328125 202.37890625 C229.91658994 199.2478531 231.17569617 197.55944457 231.6640625 192.67578125 C231.63965025 189.32520057 231.04507604 187.57683593 228.9140625 184.98828125 C225.3842039 181.5424669 223.3606973 181.03022289 218.39453125 181.06640625 C214.67312797 181.70159939 212.88593401 183.76557141 210.2890625 186.42578125 Z M44.2890625 196.42578125 C44.2890625 206.98578125 44.2890625 217.54578125 44.2890625 228.42578125 C51.75845042 228.48874518 59.22687364 228.54884289 66.69629669 228.5810318 C70.17484425 228.59685378 73.65317143 228.6179864 77.1315918 228.65209961 C81.12550962 228.69102188 85.11919513 228.70550754 89.11328125 228.71875 C90.35615402 228.73423386 91.59902679 228.74971771 92.87956238 228.76567078 C94.04038834 228.76589737 95.20121429 228.76612396 96.3972168 228.76635742 C97.41647751 228.77301926 98.43573822 228.77968109 99.48588562 228.7865448 C102.77922136 228.36269873 104.65336756 227.42379409 107.2890625 225.42578125 C108.37423773 222.55938171 108.37423773 222.55938171 107.2890625 219.42578125 C101.60972367 213.88479415 93.9724612 210.11880479 87.1640625 206.17578125 C86.10574219 205.551875 85.04742187 204.92796875 83.95703125 204.28515625 C82.92964844 203.68703125 81.90226562 203.08890625 80.84375 202.47265625 C79.92062012 201.93479492 78.99749023 201.39693359 78.04638672 200.84277344 C69.79286944 196.60128112 61.35828842 196.26193409 52.2890625 196.36328125 C49.6490625 196.38390625 47.0090625 196.40453125 44.2890625 196.42578125 Z M-11.7109375 236.42578125 C-11.7109375 239.06578125 -11.7109375 241.70578125 -11.7109375 244.42578125 C91.2490625 244.42578125 194.2090625 244.42578125 300.2890625 244.42578125 C300.2890625 241.78578125 300.2890625 239.14578125 300.2890625 236.42578125 C197.3290625 236.42578125 94.3690625 236.42578125 -11.7109375 236.42578125 Z M59.2890625 248.42578125 C57.00894557 250.23984567 57.00894557 250.23984567 57.26171875 252.84765625 C58.09620255 255.69449516 58.09620255 255.69449516 61.09765625 257.12890625 C62.29519531 257.639375 63.49273437 258.14984375 64.7265625 258.67578125 C77.89055297 264.71857112 86.79971166 274.65829352 92.1015625 288.11328125 C93.68065298 292.50772384 95.13182289 296.90202641 96.2890625 301.42578125 C97.94520907 301.80796892 99.61363274 302.13973227 101.2890625 302.42578125 C102.59652959 301.32654584 102.59652959 301.32654584 102.6015625 298.61328125 C102.32680797 285.15030933 93.59339803 272.11142595 84.671875 262.67578125 C78.4016125 256.7550088 68.28634968 248.42578125 59.2890625 248.42578125 Z M-79.7109375 251.42578125 C-80.97601112 252.48211708 -80.97601112 252.48211708 -80.97851562 254.87744141 C-80.61724382 259.66824835 -79.08733644 263.71425569 -77.4296875 268.19921875 C-77.09674683 269.12296295 -76.76380615 270.04670715 -76.42077637 270.9984436 C-75.35973959 273.93587451 -74.28555713 276.86829573 -73.2109375 279.80078125 C-72.48740756 281.79655848 -71.76474143 283.79264909 -71.04296875 285.7890625 C-69.27561685 290.67164391 -67.49745978 295.55018387 -65.7109375 300.42578125 C-66.581241 300.42134003 -67.45154449 300.4168988 -68.34822083 300.412323 C-76.5441667 300.37227314 -84.74007978 300.34181053 -92.93610096 300.32215691 C-97.14990725 300.31171317 -101.36363277 300.29754326 -105.57739258 300.27490234 C-109.64279157 300.25319492 -113.70811282 300.24121706 -117.77356529 300.23602676 C-119.32573356 300.23232722 -120.8778975 300.22510306 -122.43003273 300.21432114 C-124.60164256 300.19983399 -126.77292981 300.19780212 -128.94458008 300.19873047 C-130.79990105 300.19206863 -130.79990105 300.19206863 -132.69270325 300.18527222 C-135.89008335 300.19359452 -135.89008335 300.19359452 -138.7109375 302.42578125 C-138.36648869 304.8984489 -138.36648869 304.8984489 -137.7109375 307.42578125 C-135.13381039 308.71434481 -133.2901814 308.55456976 -130.40345764 308.55949402 C-129.27754715 308.563759 -128.15163666 308.56802399 -126.99160767 308.57241821 C-125.75051239 308.57196503 -124.50941711 308.57151184 -123.23071289 308.57104492 C-121.92826126 308.57440353 -120.62580963 308.57776215 -119.28388977 308.58122253 C-115.70540382 308.5900726 -112.12694177 308.59240106 -108.54844594 308.59303832 C-105.56374655 308.59398666 -102.57905276 308.59766408 -99.59435552 308.60121042 C-92.55419313 308.60935872 -85.51404352 308.6117943 -78.47387695 308.61108398 C-71.20525951 308.61048301 -63.93671625 308.62103789 -56.66811758 308.63682765 C-50.43283426 308.64989134 -44.19757522 308.65526838 -37.96227831 308.65462857 C-34.23590931 308.65437325 -30.50960621 308.6572433 -26.78325081 308.66780663 C-22.6289676 308.67926111 -18.47485122 308.67474799 -14.32055664 308.66870117 C-13.0814856 308.67432068 -11.84241455 308.67994019 -10.5657959 308.68572998 C-8.87270042 308.67943825 -8.87270042 308.67943825 -7.145401 308.67301941 C-6.16260194 308.67356418 -5.17980288 308.67410894 -4.16722202 308.67467022 C-1.45544321 308.59344762 -1.45544321 308.59344762 1.2890625 306.42578125 C0.94461369 303.9531136 0.94461369 303.9531136 0.2890625 301.42578125 C-2.2878016 300.1373492 -4.19312509 300.26574692 -7.07861328 300.22045898 C-8.76012985 300.19054115 -8.76012985 300.19054115 -10.47561646 300.16001892 C-12.29753006 300.13495018 -12.29753006 300.13495018 -14.15625 300.109375 C-16.01647293 300.07820335 -16.01647293 300.07820335 -17.91427612 300.04640198 C-21.21205573 299.9920042 -24.5098647 299.9417803 -27.80773926 299.89355469 C-31.17266403 299.84332891 -34.537498 299.78764848 -37.90234375 299.73242188 C-44.50513604 299.62516568 -51.10799622 299.52340936 -57.7109375 299.42578125 C-57.91281174 298.83918228 -58.11468597 298.25258331 -58.32267761 297.64820862 C-60.4235531 291.55669837 -62.55298712 285.47573448 -64.69946289 279.40014648 C-65.49723958 277.12995116 -66.28764121 274.85715035 -67.07055664 272.58178711 C-68.19580369 269.31565258 -69.3470526 266.05973959 -70.50390625 262.8046875 C-71.02297798 261.27032799 -71.02297798 261.27032799 -71.55253601 259.70497131 C-71.89251114 258.7640715 -72.23248627 257.82317169 -72.58276367 256.85375977 C-72.87366379 256.02103043 -73.1645639 255.18830109 -73.46427917 254.33033752 C-74.59711259 252.16645274 -74.59711259 252.16645274 -77.28144836 251.58653259 C-78.08317978 251.53348465 -78.88491119 251.48043671 -79.7109375 251.42578125 Z " fill="#ffffff" transform="translate(183.7109375,15.57421875)"/>
<path d="M0 0 C2.9375 0.4375 2.9375 0.4375 4.9375 2.4375 C4.79091845 5.23587507 4.35533619 7.94161988 3.93359375 10.7109375 C3.93836878 14.04390851 4.89136214 14.90810344 6.9375 17.4375 C7.87272466 22.07149604 7.26185486 25.72641433 5.3125 30 C2.9375 32.4375 2.9375 32.4375 -0.25 32.875 C-3.0625 32.4375 -3.0625 32.4375 -4.0625 31.4375 C-4.20165141 28.37616901 -4.15367394 25.78561868 -3.375 22.8125 C-3.271875 22.02875 -3.16875 21.245 -3.0625 20.4375 C-3.54332031 19.84066406 -4.02414062 19.24382812 -4.51953125 18.62890625 C-7.30006024 14.67985115 -6.55666906 10.07719839 -6.0625 5.4375 C-4.64844218 1.43100284 -4.23341367 0.60477338 0 0 Z " fill="#ffffff" transform="translate(422.0625,51.5625)"/>
<path d="M0 0 C2.9375 0.4375 2.9375 0.4375 4.9375 2.4375 C4.79091845 5.23587507 4.35533619 7.94161988 3.93359375 10.7109375 C3.93836878 14.04390851 4.89136214 14.90810344 6.9375 17.4375 C7.87272466 22.07149604 7.26185486 25.72641433 5.3125 30 C2.9375 32.4375 2.9375 32.4375 -0.25 32.875 C-3.0625 32.4375 -3.0625 32.4375 -4.0625 31.4375 C-4.20165141 28.37616901 -4.15367394 25.78561868 -3.375 22.8125 C-3.271875 22.02875 -3.16875 21.245 -3.0625 20.4375 C-3.54332031 19.84066406 -4.02414062 19.24382812 -4.51953125 18.62890625 C-7.30006024 14.67985115 -6.55666906 10.07719839 -6.0625 5.4375 C-4.64844218 1.43100284 -4.23341367 0.60477338 0 0 Z " fill="#ffffff" transform="translate(406.0625,51.5625)"/>
<path d="M0 0 C2.9375 0.4375 2.9375 0.4375 4.9375 2.4375 C4.79091845 5.23587507 4.35533619 7.94161988 3.93359375 10.7109375 C3.93836878 14.04390851 4.89136214 14.90810344 6.9375 17.4375 C7.87272466 22.07149604 7.26185486 25.72641433 5.3125 30 C2.9375 32.4375 2.9375 32.4375 -0.25 32.875 C-3.0625 32.4375 -3.0625 32.4375 -4.0625 31.4375 C-4.20165141 28.37616901 -4.15367394 25.78561868 -3.375 22.8125 C-3.271875 22.02875 -3.16875 21.245 -3.0625 20.4375 C-3.54332031 19.84066406 -4.02414062 19.24382812 -4.51953125 18.62890625 C-7.30006024 14.67985115 -6.55666906 10.07719839 -6.0625 5.4375 C-4.64844218 1.43100284 -4.23341367 0.60477338 0 0 Z " fill="#ffffff" transform="translate(390.0625,51.5625)"/>
</g></svg>

