<?xml version="1.0" encoding="UTF-8"?>
<svg version="1.1" xmlns="http://www.w3.org/2000/svg" width="512" height="512">
<path d="M0 0 C1.38333325 0.73341809 2.76737561 1.46550016 4.15209961 2.19628906 C8.19684445 4.33780701 12.22453591 6.51001959 16.25 8.6875 C17.31557129 9.26097168 18.38114258 9.83444336 19.47900391 10.42529297 C24.00124976 12.86174665 28.51023525 15.31984359 33.00390625 17.80859375 C36.73648953 19.87232593 40.49654505 21.873675 44.27734375 23.84765625 C45.27628662 24.37520508 46.27522949 24.90275391 47.30444336 25.44628906 C49.20404753 26.448285 51.10946008 27.43938221 53.02172852 28.41699219 C59.15969777 31.67967715 64.07996618 35.34743236 67.25 41.6875 C67.37218255 43.26734876 67.42549605 44.85297906 67.4375 46.4375 C67.45167969 47.27796875 67.46585938 48.1184375 67.48046875 48.984375 C67.213414 52.11661041 66.33721296 54.74815745 65.25 57.6875 C79.44679837 58.77690109 91.58967653 56.21191425 105.23046875 52.31640625 C122.18281601 47.55613707 140.07652683 48.79869247 157.0625 52.71484375 C157.78751709 52.88193848 158.51253418 53.0490332 159.25952148 53.22119141 C160.9785863 53.62391602 162.69467768 54.0392942 164.41015625 54.45703125 C168.05673116 54.75297062 170.31259963 53.82085139 173.6875 52.4375 C198.9732627 42.82409511 224.00651138 45.95907692 249.29541016 53.55175781 C259.08964891 56.39426115 269.04906419 57.6875 279.25 57.6875 C278.92 56.90375 278.59 56.12 278.25 55.3125 C276.62514818 49.42241214 276.15085116 44.06898916 278.75 38.4375 C284.94039853 31.62806162 292.74420141 27.65309155 300.875 23.5625 C303.11554387 22.41724181 305.35510995 21.2700689 307.59375 20.12109375 C308.71265625 19.5472998 309.8315625 18.97350586 310.984375 18.38232422 C315.82278542 15.8712413 320.60006657 13.25421348 325.375 10.625 C328.06533411 9.1552032 330.75673751 7.68737852 333.44824219 6.21972656 C335.39395287 5.15565544 337.33713965 4.08696139 339.27832031 3.01464844 C342.3434267 1.32638129 345.4202498 -0.33862789 348.5 -2 C349.8924292 -2.77645874 349.8924292 -2.77645874 351.31298828 -3.56860352 C357.60669561 -6.92922719 364.05218252 -9.43829745 371.27783203 -7.87329102 C375.50088998 -6.30541238 377.90500645 -4.08123963 380.25 -0.3125 C383.53830276 7.07445481 384.6581482 14.78695724 385.94555664 22.7097168 C386.19821398 24.22684617 386.45158528 25.74385679 386.70561218 27.26075745 C387.39052967 31.36314711 388.06543545 35.46712684 388.73847508 39.57147956 C389.44713194 43.88249577 390.16493417 48.191989 390.88169861 52.50166321 C392.08470782 59.74267244 393.28189063 66.98462404 394.47485352 74.22729492 C396.15123625 84.40487482 397.83758453 94.58078381 399.52621663 104.75633752 C401.79403442 118.42486787 404.05854592 132.09395311 406.31222725 145.76482201 C406.55464942 147.23489721 406.79729744 148.70493518 407.04020309 150.17493057 C413.08267347 186.75064588 413.08267347 186.75064588 409.5625 194.3125 C404.98760986 199.01103581 400.49886404 201.6734479 394.375 203.9375 C393.21653564 204.37267944 393.21653564 204.37267944 392.03466797 204.81665039 C390.34925897 205.44497539 388.66182323 206.06788412 386.97265625 206.68603516 C385.09651417 207.37612974 383.22430516 208.07698028 381.35546875 208.78662109 C378.36927079 209.92014348 375.37380763 211.02532255 372.375 212.125 C371.44961426 212.47916992 370.52422852 212.83333984 369.57080078 213.19824219 C362.74633536 215.64307997 354.27570734 217.78988258 347.27563477 214.86157227 C345.6875 213.8125 345.6875 213.8125 343.25 211.6875 C342.26 211.0275 341.27 210.3675 340.25 209.6875 C339.69570313 209.97625 339.14140625 210.265 338.5703125 210.5625 C337.84585937 210.93375 337.12140625 211.305 336.375 211.6875 C335.65570313 212.05875 334.93640625 212.43 334.1953125 212.8125 C332.25 213.6875 332.25 213.6875 330.25 213.6875 C330.28480469 214.39132812 330.31960938 215.09515625 330.35546875 215.8203125 C330.67974896 227.6488193 329.50505762 239.61958113 321.25 248.6875 C316.70645919 253.13361596 312.63806401 255.70623966 306.5 257.375 C302.97037342 258.51232412 301.62384276 259.06692101 299.6875 262.28125 C298.88706722 264.36658803 298.12726252 266.46791955 297.40625 268.58203125 C294.29565534 276.93650002 288.01901696 282.62049783 280.25 286.6875 C274.83250291 289.0871967 270.15576247 290.06446356 264.25 289.6875 C264.064375 290.491875 263.87875 291.29625 263.6875 292.125 C259.96222294 301.35720837 252.45084266 309.14216466 243.3125 313.0625 C236.10659725 315.49801462 228.74883399 315.02621772 221.25 314.6875 C220.98445313 315.26628906 220.71890625 315.84507812 220.4453125 316.44140625 C216.34568093 324.1449623 209.7529463 329.63835483 201.6484375 332.65625 C190.45374831 336.06195826 181.08504939 335.14252031 170.25 330.6875 C169.36054688 329.97207031 168.47109375 329.25664062 167.5546875 328.51953125 C162.68199546 325.8182398 158.54747961 326.62433561 153.125 327.125 C142.03880135 327.86257407 132.03439412 328.03660909 123.06640625 320.56640625 C119.2178903 316.58546825 115.32004541 311.77629087 113.4921875 306.5 C111.45812566 303.5320607 108.66890766 303.53626069 105.25 302.8125 C95.43258229 300.49044076 86.84551607 296.45436197 81.25 287.6875 C76.25 278.35062997 76.25 278.35062997 76.25 272.6875 C75.280625 272.625625 74.31125 272.56375 73.3125 272.5 C64.07821572 271.17011322 57.66181275 264.83843109 52.125 257.8125 C48.58607193 252.97839723 46.25 248.82391452 46.25 242.6875 C45.425 242.605 44.6 242.5225 43.75 242.4375 C34.59825128 240.47641099 26.98779881 234.86291373 21.5234375 227.296875 C19.4720445 223.95152641 17.65523559 220.57129953 16.01953125 217.00390625 C13.27316332 211.02233467 10.96410724 208.04873955 5.25 204.6875 C4.87488281 205.15800781 4.49976562 205.62851562 4.11328125 206.11328125 C3.60152344 206.73589844 3.08976562 207.35851562 2.5625 208 C2.06363281 208.61488281 1.56476563 209.22976563 1.05078125 209.86328125 C-2.88873233 213.85406832 -6.40866329 215.14568051 -11.9765625 215.23046875 C-20.18208255 215.0452933 -27.25908693 212.69563584 -34.89306641 209.83520508 C-37.13532066 208.99613794 -39.38790805 208.19209401 -41.64453125 207.39257812 C-62.07436344 200.03877312 -62.07436344 200.03877312 -66.75 190.6875 C-67.48431658 180.16560261 -65.98817138 170.07442784 -64.24316406 159.74316406 C-63.97286667 158.0924726 -63.70352615 156.44162421 -63.43505859 154.79063416 C-62.70976252 150.34907319 -61.97041561 145.90996299 -61.22771168 141.47128391 C-60.44871058 136.80462953 -59.68080497 132.13614675 -58.91107178 127.46795654 C-57.61777756 119.63596519 -56.31501778 111.80559163 -55.00683594 103.97607422 C-53.49809114 94.94529018 -52.00575894 85.91190653 -50.52185273 76.87701058 C-49.24274527 69.09179197 -47.95470106 61.30808992 -46.65927672 53.52556968 C-45.88759536 48.88947491 -45.11894679 44.2529345 -44.35840607 39.61499786 C-43.64315642 35.25633501 -42.91665052 30.89969133 -42.18167114 26.54431343 C-41.91493474 24.95272837 -41.65200977 23.36049875 -41.39333344 21.76758385 C-38.02155722 1.0429433 -38.02155722 1.0429433 -32.3125 -4.8125 C-31.466875 -5.3075 -30.62125 -5.8025 -29.75 -6.3125 C-29.028125 -6.745625 -28.30625 -7.17875 -27.5625 -7.625 C-17.32159306 -10.12833281 -8.69280429 -4.70576363 0 0 Z M-21.75 7.6875 C-24.08098868 17.21186558 -25.88320691 26.77913946 -27.47729492 36.44848633 C-27.73356153 37.98425721 -27.99016847 39.51997134 -28.24708557 41.05563354 C-28.93674363 45.18479156 -29.62121996 49.31479179 -30.30433822 53.44503617 C-30.8769949 56.90477841 -31.45209068 60.36411355 -32.02712232 63.82346171 C-33.38347735 71.98380914 -34.73544716 80.14487478 -36.0847168 88.30639648 C-37.47399973 96.70942714 -38.87108274 105.11113514 -40.27190703 113.51224881 C-41.47830858 120.74917481 -42.6797072 127.98691942 -43.87715417 135.22533244 C-44.59073442 139.53846057 -45.30621741 143.85125066 -46.02660179 148.16324806 C-46.7029718 152.21303722 -47.37307406 156.26381515 -48.03844261 160.31542587 C-48.28291588 161.79761481 -48.52956877 163.27944622 -48.77861404 164.76087379 C-49.95424626 171.76145911 -51.09075056 178.56602308 -50.75 185.6875 C-43.72948759 188.9277365 -36.59554983 191.73275422 -29.32788086 194.37158203 C-28.05624945 194.83635239 -26.78705362 195.30783582 -25.52026367 195.78564453 C-23.66871271 196.48374307 -21.80903961 197.16017947 -19.94921875 197.8359375 C-18.85440186 198.23989746 -17.75958496 198.64385742 -16.6315918 199.06005859 C-13.85455362 199.89950316 -13.85455362 199.89950316 -11.56689453 199.08056641 C-2.57440001 192.18575671 1.05200523 177.83241941 4.9375 167.6875 C5.67062395 165.79983828 6.40494831 163.9126424 7.14038086 162.02587891 C8.70490545 158.00797655 10.26325408 153.98775476 11.81738281 149.96582031 C14.27124008 143.62254107 16.75332104 137.29054974 19.2421875 130.9609375 C19.65966248 129.89914276 20.07713745 128.83734802 20.50726318 127.74337769 C21.35306233 125.59220153 22.19886718 123.44102762 23.04467773 121.28985596 C25.14636199 115.93982908 27.24105176 110.58706679 29.3359375 105.234375 C32.17370916 97.98358826 35.01655524 90.73485012 37.86872864 83.48971558 C39.37408209 79.6642623 40.87619722 75.83754279 42.37765503 72.01055908 C43.07747412 70.22902187 43.7787199 68.44804435 44.48147583 66.66766357 C45.44328104 64.23043875 46.39997233 61.79126616 47.35546875 59.3515625 C47.63673615 58.64259827 47.91800354 57.93363403 48.20779419 57.20318604 C49.56481341 53.7225977 50.66662231 50.38237417 51.25 46.6875 C43.85142518 42.13461057 36.29510996 37.95072354 28.625 33.875 C27.42316534 33.23438691 26.2214261 32.59359479 25.01977539 31.95263672 C22.46044869 30.5881475 19.9001957 29.22541591 17.33935547 27.86376953 C13.77216419 25.96647446 10.20812535 24.06332658 6.64477539 22.15882874 C3.70873396 20.59006504 0.77153168 19.02348428 -2.16595459 17.45742798 C-3.59279504 16.69637743 -5.01927053 15.93464221 -6.44537354 15.17221069 C-8.44285759 14.10473728 -10.44191647 13.04027311 -12.44140625 11.9765625 C-13.58810791 11.36506348 -14.73480957 10.75356445 -15.91625977 10.12353516 C-18.71782412 8.61669145 -18.71782412 8.61669145 -21.75 7.6875 Z M360.45703125 10.109375 C358.9400061 10.89634766 358.9400061 10.89634766 357.39233398 11.69921875 C356.29348877 12.27285156 355.19464355 12.84648438 354.0625 13.4375 C352.93207275 14.02660156 351.80164551 14.61570312 350.63696289 15.22265625 C342.55813365 19.44723544 334.52318841 23.74563971 326.53955078 28.14746094 C321.57940124 30.88191393 316.59787266 33.56373758 311.578125 36.1875 C309.91728882 37.06341797 309.91728882 37.06341797 308.22290039 37.95703125 C306.07148379 39.09021405 303.91457043 40.21303604 301.75170898 41.32421875 C300.78563721 41.83597656 299.81956543 42.34773438 298.82421875 42.875 C297.96401123 43.32230469 297.10380371 43.76960938 296.2175293 44.23046875 C294.12883575 45.50214606 294.12883575 45.50214606 293.55084038 47.54021454 C293.20401536 50.01572103 293.53565988 51.19994647 294.46902466 53.50109863 C294.76541273 54.24752121 295.0618008 54.99394379 295.36717033 55.76298523 C295.70249338 56.57403214 296.03781643 57.38507904 296.38330078 58.22070312 C296.73018007 59.08476273 297.07705936 59.94882233 297.43445015 60.83906555 C298.59413791 63.72003349 299.76969398 66.59425002 300.9453125 69.46875 C301.76585447 71.49817898 302.58539574 73.52801283 303.4039917 75.55822754 C305.59602158 80.98687772 307.80160938 86.40992235 310.00991058 91.83197021 C312.27367865 97.3965443 314.52528013 102.96603468 316.77783203 108.53515625 C320.31785666 117.28370806 323.86447302 126.02955566 327.41601562 134.7734375 C331.458145 144.72664138 335.47969923 154.68792531 339.484375 164.65625 C339.99364013 165.92307219 340.5029468 167.18987769 341.01229858 168.45666504 C344.62997015 177.45463407 344.62997015 177.45463407 346.42437744 181.92358398 C347.5903004 184.8250768 348.75945279 187.72524411 349.9296875 190.625 C350.42526154 191.86147278 350.42526154 191.86147278 350.93084717 193.1229248 C352.16296644 196.66513402 352.16296644 196.66513402 354.25 199.6875 C359.47675806 199.22158894 364.18081359 197.85868248 369.08203125 196.0703125 C370.1587635 195.68357864 370.1587635 195.68357864 371.25724792 195.28903198 C372.76186157 194.74611167 374.2652136 194.19968325 375.76733398 193.64990234 C378.06910109 192.81009156 380.37686848 191.98856001 382.68554688 191.16796875 C384.15143815 190.636509 385.61694735 190.10399392 387.08203125 189.5703125 C388.1163604 189.20451584 388.1163604 189.20451584 389.17158508 188.83132935 C392.72312695 187.51304464 394.08610594 186.93334109 396.25 183.6875 C396.10727473 180.56007561 396.10727473 180.56007561 395.440979 176.95794678 C395.32975952 176.27020211 395.21854003 175.58245745 395.10395026 174.87387204 C394.7270089 172.56196334 394.33271627 170.25335291 393.93847656 167.94433594 C393.6651256 166.2904179 393.3928324 164.63632475 393.121521 162.98207092 C392.38027921 158.48209747 391.62390012 153.98478551 390.86463642 149.48782253 C390.07259651 144.78257131 389.29365549 140.07515205 388.51312256 135.36798096 C387.1994952 127.45765146 385.87673067 119.54889418 384.54785156 111.64111328 C382.84369081 101.49984561 381.15451187 91.35614325 379.47012711 81.21157455 C378.02125744 72.48621035 376.56543269 63.76200874 375.10852337 55.03798389 C374.64102598 52.23677763 374.17448597 49.43541315 373.70807648 46.63402557 C372.97340153 42.22407878 372.2343838 37.81488013 371.49204254 33.40621758 C371.22058131 31.79038125 370.95047334 30.17431689 370.68183899 28.55800819 C370.3139859 26.34634759 369.94110814 24.13559015 369.56695557 21.92498779 C369.35971989 20.68907269 369.15248421 19.45315758 368.93896866 18.1797905 C368.23127001 14.59256015 367.30343782 11.18597573 366.25 7.6875 C364.21668829 7.6875 362.20321282 9.20298871 360.45703125 10.109375 Z M152.57519531 80.37353516 C147.20052265 83.47135185 141.79886609 86.48170302 136.3046875 89.36328125 C135.14936523 89.97107422 133.99404297 90.57886719 132.80371094 91.20507812 C130.58050401 92.36892157 128.35224496 93.52318444 126.11816406 94.66601562 C115.09202917 100.39412717 115.09202917 100.39412717 107.25 109.6875 C106.70197889 115.38691954 107.64038198 118.25282643 111.25 122.6875 C115.61207686 125.59555124 119.1238923 125.31200466 124.25 124.6875 C129.11439457 123.39213844 133.79459685 121.6497499 138.5 119.875 C139.85458975 119.37804603 141.20974478 118.88263046 142.56542969 118.38867188 C146.09115798 117.09983437 149.60972412 115.79256666 153.12646484 114.47943115 C158.60250486 112.43724849 164.08766126 110.41966908 169.57214355 108.40029907 C171.44624806 107.70737406 173.31741192 107.00651186 175.18847656 106.30541992 C193.2920364 99.58134834 210.51696386 95.71336685 229.3125 102.6875 C242.24112587 108.72443618 252.27895414 119.28284977 262.1796875 129.2890625 C263.46654358 130.57898751 264.75400123 131.86831264 266.04202271 133.15707397 C268.71720468 135.83681679 271.38745755 138.52133478 274.05371094 141.20996094 C277.45246995 144.63711359 280.8599484 148.05542709 284.27070427 151.47063637 C287.55602478 154.76113398 290.83666789 158.05627983 294.1171875 161.3515625 C294.73213955 161.96839527 295.3470916 162.58522804 295.98067856 163.22075272 C307.75020236 175.03685125 307.75020236 175.03685125 312.91036987 181.13015747 C314.97657002 183.53214985 317.23255638 185.72709899 319.5 187.9375 C322.35325773 190.71986934 324.94857604 193.42964011 327.25 196.6875 C330.85992379 196.03164811 330.85992379 196.03164811 334.25 194.6875 C332.299108 187.75304096 329.94231582 181.1061683 327.20703125 174.4453125 C326.8098288 173.46696442 326.41262634 172.48861633 326.00338745 171.48062134 C325.14313893 169.36288112 324.28089052 167.2459524 323.4168396 165.12976074 C321.0733562 159.38973402 318.74479671 153.64364995 316.4140625 147.8984375 C315.92203842 146.68675903 315.43001434 145.47508057 314.92308044 144.22668457 C309.1462743 129.99410462 303.44664624 115.73065369 297.74816513 101.46657562 C296.66835633 98.76383976 295.58814087 96.06126651 294.5079422 93.35868645 C291.75413672 86.46875344 289.001527 79.57834326 286.25 72.6875 C285.36127701 72.76159088 284.47255402 72.83568176 283.55690002 72.91201782 C282.38900436 73.00631073 281.2211087 73.10060364 280.01782227 73.19775391 C278.28255028 73.33982773 278.28255028 73.33982773 276.51222229 73.48477173 C261.67296214 74.40694603 246.29576944 69.7723339 232.234375 65.47265625 C203.20708778 57.0810228 177.72793843 65.87396555 152.57519531 80.37353516 Z M97.17578125 70.84375 C85.61864536 74.05547356 74.93641973 74.39463191 62.99169922 73.17260742 C62.10086639 73.08194504 61.21003357 72.99128265 60.29220581 72.89787292 C59.28131393 72.79373833 59.28131393 72.79373833 58.25 72.6875 C57.94291359 73.48173874 57.94291359 73.48173874 57.62962341 74.29202271 C40.27980416 119.1587922 40.27980416 119.1587922 32.16995239 139.67288208 C31.25556633 141.98591938 30.34242685 144.29944589 29.42944336 146.61303711 C26.8639183 153.10944252 24.28962555 159.60187751 21.67724609 166.0796051 C20.61098769 168.7261801 19.55138007 171.37538948 18.49267578 174.0249939 C17.77156074 175.82129217 17.04023028 177.61347897 16.30859375 179.40551758 C15.88707031 180.46150146 15.46554688 181.51748535 15.03125 182.60546875 C14.66064453 183.52094482 14.29003906 184.4364209 13.90820312 185.37963867 C12.97896491 187.81488098 12.97896491 187.81488098 14.25 190.6875 C15.77096186 191.92775704 17.34180598 193.10749262 18.9375 194.25 C25.54079869 199.38380568 28.71978401 205.45580624 32.25 212.875 C35.5321256 219.53341054 39.73157808 223.85369591 46.3203125 227.25390625 C48.98633943 227.85295279 49.92409206 227.07398557 52.25 225.6875 C54.19204373 223.95556532 54.19204373 223.95556532 56.078125 221.9140625 C56.79613281 221.1715625 57.51414063 220.4290625 58.25390625 219.6640625 C59.73995128 218.10823796 61.22179929 216.54839276 62.69921875 214.984375 C69.64618173 207.82689799 76.29443941 203.61313741 86.4375 203.4375 C95.62071178 203.583846 101.58200833 206.09833126 108.296875 212.4140625 C111.21892385 215.81532736 112.84993993 219.4579479 114.25 223.6875 C115.343125 223.5225 116.43625 223.3575 117.5625 223.1875 C127.84127635 221.9750387 137.42173143 221.92760016 146.26171875 228.08984375 C148.34556762 229.87662401 150.28985359 231.7655834 152.25 233.6875 C153.74157431 235.04402636 155.23335881 236.40032728 156.72827148 237.75317383 C162.74570548 243.22283844 168.54246329 248.89103484 174.22900391 254.70336914 C177.10252718 257.6219656 180.03149311 260.40203218 183.13671875 263.07421875 C188.33429262 267.56374083 193.08517937 272.47413983 197.89453125 277.37109375 C201.96454297 281.48574911 206.13143522 285.38126696 210.52197266 289.15136719 C212.58259017 290.98315659 214.37739083 292.98559469 216.1875 295.0625 C219.61822457 298.52002711 222.08496186 299.76778285 226.9609375 299.8515625 C227.71632813 299.79742187 228.47171875 299.74328125 229.25 299.6875 C230.00539063 299.63335937 230.76078125 299.57921875 231.5390625 299.5234375 C239.0787769 298.40932163 243.79593282 293.8852239 248.3125 288 C249.42218616 285.26277414 249.21157323 284.41968986 248.25 281.6875 C246.34309346 279.53672489 244.43160703 277.55235571 242.36914062 275.5612793 C241.75612595 274.95746429 241.14311127 274.35364929 240.51152039 273.73153687 C239.18003421 272.42150565 237.84521705 271.11485336 236.50749207 269.81119347 C234.39028956 267.74615152 232.28388723 265.67065313 230.18029785 263.5917511 C224.19800059 257.68282273 218.19929854 251.79076187 212.18701172 245.91235352 C208.50972063 242.31547339 204.84722496 238.70406602 201.19340515 235.08335304 C199.79878925 233.70734893 198.39850799 232.3370622 196.99250793 230.97269249 C195.02472319 229.06265375 193.07621332 227.13474634 191.13085938 225.2019043 C190.54692917 224.64425888 189.96299896 224.08661346 189.3613739 223.5120697 C185.64900703 219.77229891 184.4268394 217.14767325 184.25 211.6875 C184.6875 209.25 184.6875 209.25 185.25 207.6875 C190.82127905 206.46181861 193.39095663 206.74674416 198.25 209.6875 C200.57167394 211.66282392 202.6659298 213.82431564 204.77099609 216.02661133 C205.70400795 216.98306046 205.70400795 216.98306046 206.65586853 217.95883179 C207.99962208 219.33731498 209.34009019 220.71900696 210.67759323 222.10355568 C212.79615067 224.29300445 214.92699883 226.46974127 217.06216431 228.64299011 C223.12961711 234.82021703 229.18577775 241.00798621 235.20507812 247.23217773 C238.89284879 251.04365421 242.6044928 254.83040707 246.33278275 258.60223961 C247.74783817 260.04331798 249.15362453 261.49355882 250.54981613 262.95292091 C252.50086867 264.99055056 254.48080358 266.99526817 256.47021484 268.99536133 C257.32462914 269.91077446 257.32462914 269.91077446 258.19630432 270.84468079 C259.83940963 272.459632 261.17833092 273.67664988 263.25 274.6875 C268.55026004 274.5736583 274.22734528 272.06164263 278.25 268.6875 C283.14494553 262.79235468 283.14494553 262.79235468 285.25 255.6875 C283.53368674 253.51681572 281.87577569 251.73352189 279.88745117 249.83666992 C279.30559555 249.26211563 278.72373993 248.68756134 278.12425232 248.09559631 C276.85667749 246.84707572 275.58335912 245.6043662 274.30510521 244.36678123 C272.28073389 242.40611893 270.27230304 240.43034644 268.26741028 238.44978333 C263.28219913 233.53151515 258.2704975 228.6405206 253.25933838 223.74871826 C249.03137525 219.6195143 244.81385141 215.48016896 240.60961342 211.32680702 C238.63311531 209.38266276 236.6421296 207.4542285 234.65019226 205.52592468 C233.43296605 204.32687136 232.21644199 203.12710468 231.00073242 201.92651367 C230.44530762 201.39692047 229.88988281 200.86732727 229.31762695 200.32168579 C225.71035328 196.7169099 224.18687901 193.68757777 223.25 188.6875 C223.625 185.75 223.625 185.75 224.25 183.6875 C227.32383013 182.84077364 230.06117845 182.47977395 233.25 182.6875 C235.052948 183.77209473 235.052948 183.77209473 236.78857422 185.40039062 C237.47868591 186.04476074 238.16879761 186.68913086 238.87982178 187.35302734 C243.27056524 191.67762642 247.60956384 196.04760637 251.91302872 200.45875549 C254.88331398 203.49848979 257.8709313 206.52114478 260.85546875 209.546875 C264.6351547 213.38062728 268.40940415 217.21931717 272.16552734 221.07617188 C275.22001356 224.21166176 278.29121625 227.32986947 281.37441635 230.43711853 C282.54252972 231.62066726 283.70432448 232.81048712 284.85956192 234.00660706 C286.47015983 235.67260509 288.10119789 237.31564816 289.73876953 238.95507812 C290.66062042 239.8954895 291.58247131 240.83590088 292.53225708 241.80480957 C295.14139284 244.01993044 295.14139284 244.01993044 298.47091675 243.53308105 C304.37618636 241.73630721 308.95386834 239.05897381 312.25 233.6875 C314.94284161 224.50551751 316.81673588 214.0883022 314.25 204.6875 C311.0164372 199.24514377 306.15903528 195.39040331 301.29164124 191.45791626 C299.4180749 189.83324673 297.89838423 188.21008538 296.31591797 186.30834961 C290.92597571 180.05833248 285.04702783 174.27871006 279.23046875 168.4296875 C278.29898734 167.4920928 278.29898734 167.4920928 277.34868813 166.53555679 C274.06572626 163.23186131 270.7795877 159.93136262 267.4909668 156.63330078 C264.11705386 153.24830517 260.75499268 149.85178526 257.39541149 146.45257378 C254.78796955 143.81887177 252.1715703 141.19420448 249.55275917 138.57181168 C248.30997537 137.32419218 247.07053831 136.07322869 245.83470726 134.81872177 C234.98784993 123.81809946 223.87136945 114.4073532 207.7578125 113.60009766 C193.5972299 113.95292954 179.21474125 120.7553507 166.125 125.625 C164.19690036 126.33606184 162.26851597 127.04635206 160.33984375 127.75585938 C156.64350286 129.11643077 152.9478846 130.47893107 149.25292969 131.84326172 C144.90357922 133.44745248 140.5533539 135.04844896 136.1953125 136.62890625 C135.15133301 137.00861572 134.10735352 137.3883252 133.03173828 137.77954102 C123.78201022 140.79865096 113.41877861 141.20934248 104.47265625 137.078125 C98.9039676 133.59402454 94.65772331 128.30640669 92.69140625 122.01171875 C91.16011309 113.94871495 91.24695237 106.27661826 95.54418945 99.11352539 C101.28672184 90.94642301 109.94681822 86.23849122 118.5625 81.625 C120.68419051 80.46854208 122.80528595 79.31099176 124.92578125 78.15234375 C126.47773193 77.30905518 126.47773193 77.30905518 128.06103516 76.44873047 C133.17882277 73.62223224 138.21671245 70.66122832 143.25 67.6875 C140.38252451 64.82002451 138.09430596 65.37134572 134.16650391 65.30761719 C132.72283447 65.31003418 132.72283447 65.31003418 131.25 65.3125 C129.7657251 65.31491699 129.7657251 65.31491699 128.25146484 65.31738281 C117.41508252 65.49488578 107.54078909 67.90019791 97.17578125 70.84375 Z M68.875 230.9375 C68.13894531 231.68257812 67.40289062 232.42765625 66.64453125 233.1953125 C64.84169953 235.02155762 63.04373022 236.85232205 61.25 238.6875 C61.71378473 240.1313901 62.18210971 241.57382237 62.65234375 243.015625 C62.91265381 243.8190332 63.17296387 244.62244141 63.44116211 245.45019531 C65.77958987 251.91845732 70.28960423 253.99222742 76.203125 256.76953125 C76.87859375 257.07246094 77.5540625 257.37539063 78.25 257.6875 C83.09614661 253.74296206 87.60532348 249.49848523 92.0625 245.125 C92.63766357 244.57110596 93.21282715 244.01721191 93.80541992 243.4465332 C96.86100868 240.4162383 99.11530953 237.95885075 100.25 233.6875 C100.25 228.00447118 98.45751531 225.14617293 94.8203125 221.0703125 C92.35663591 218.90080625 90.15899051 218.6789142 86.9375 218.375 C79.09312976 219.03977714 74.10721624 225.5822841 68.875 230.9375 Z M104.91040039 253.41625977 C103.17699363 255.13542002 101.41860066 256.82611992 99.65820312 258.51757812 C98.55045773 259.61294179 97.44427878 260.70989239 96.33984375 261.80859375 C95.54947975 262.558881 95.54947975 262.558881 94.7431488 263.32432556 C93.08800765 264.93399261 93.08800765 264.93399261 91.25 267.6875 C91.45774126 273.81052251 94.3927856 278.10760208 98.25 282.6875 C102.22191561 286.15700146 106.81026645 287.37047903 111.95803833 287.86236572 C116.12544752 287.54441232 118.23480452 284.99892914 120.96484375 282.0546875 C121.54665909 281.46583771 122.12847443 280.87698792 122.72792053 280.27029419 C123.9487227 279.02570743 125.15753359 277.76925725 126.35473633 276.50195312 C128.18364324 274.56658127 130.0451259 272.66817117 131.91601562 270.7734375 C133.10100688 269.55667921 134.28402 268.33799063 135.46484375 267.1171875 C136.01687973 266.54926483 136.56891571 265.98134216 137.13768005 265.39620972 C140.59634895 261.7207631 143.00428952 258.58483607 143.4375 253.4765625 C142.90572842 247.33903219 140.94074596 243.70487853 136.25 239.6875 C123.65286049 232.25841772 113.12368323 245.22891237 104.91040039 253.41625977 Z M141.5625 283.1875 C139.91498816 284.88757836 138.26531611 286.5855665 136.61328125 288.28125 C135.89438721 289.03083984 135.17549316 289.78042969 134.43481445 290.55273438 C132.15821839 292.77717911 129.76530822 294.73988 127.25 296.6875 C128.57926615 301.76287986 130.53587321 304.97337321 134.25 308.6875 C139.68929725 311.82555611 144.16849763 312.18226629 150.25 311.6875 C150.94867188 311.6875 151.64734375 311.6875 152.3671875 311.6875 C160.94016293 310.93383183 167.02802565 302.90196817 172.25 296.6875 C175.71825719 291.95647131 177.52276312 288.55190706 177.25 282.6875 C175.61083995 276.99865042 173.26398629 273.84445433 168.25 270.6875 C156.46945942 266.95699548 149.11493343 275.28337472 141.5625 283.1875 Z M191.25 293.6875 C191.00507813 294.29335938 190.76015625 294.89921875 190.5078125 295.5234375 C187.13239377 303.08903121 182.32813515 308.14046404 176.25 313.6875 C179.87155137 317.47508238 182.73106696 318.5356067 188 319.0625 C194.14457894 318.88826808 199.81584099 316.26674753 204.375 312.1875 C206.50507116 309.94123292 206.50507116 309.94123292 206.03295898 307.71972656 C205.1761458 305.49580609 204.28008722 304.34396029 202.59765625 302.671875 C201.80391602 301.87910156 201.80391602 301.87910156 200.99414062 301.0703125 C200.43919922 300.53148437 199.88425781 299.99265625 199.3125 299.4375 C198.76142578 298.88320313 198.21035156 298.32890625 197.64257812 297.7578125 C194.94436971 294.69746137 194.94436971 294.69746137 191.25 293.6875 Z " fill="#ffffff" transform="translate(83.75,97.3125)"/>
</svg>
